<?xml version="1.0" encoding="utf-8"?>
<!-- Generator: Adobe Illustrator 27.7.0, SVG Export Plug-In . SVG Version: 6.00 Build 0)  -->
<svg version="1.1" id="Layer_1" xmlns="http://www.w3.org/2000/svg" xmlns:xlink="http://www.w3.org/1999/xlink" x="0px" y="0px"
	 viewBox="0 0 650 650" style="enable-background:new 0 0 650 650;" xml:space="preserve">
<style type="text/css">
	.st0{fill:#EC1D24;}
	.st1{fill:#1D4497;}
	.st2{font-family:'Roboto-Bold';}
	.st3{font-size:8.4767px;}
	.st4{fill:url(#SVGID_1_);}
</style>
<path class="st0" d="M42.85,324.15c1.69-162.02,132.78-281.23,282.8-280.46c163.09,0.84,288.09,134.24,281.23,293.68
	c-6.5,150.97-132.04,274.95-292.79,268.71C159.52,600.09,43.01,473.74,42.85,324.15z M322.76,71.78c-18.2-0.35-41.7,2.4-64.81,8.68
	c-14.7,3.99-28.8,9.52-42.67,15.7c-8.75,3.9-16.76,9.17-25.05,13.92c-13.06,7.48-24.68,16.85-35.77,26.91
	c-12.62,11.45-23.65,24.34-33.97,37.89c-10.63,13.97-19.06,29.22-26.82,44.89c-4.52,9.12-7.78,18.73-10.81,28.44
	c-3.89,12.45-7.52,25.03-9.31,37.9c-3.21,23.17-3.68,46.48-0.89,69.79c2.03,17.03,5.74,33.71,11.16,49.95
	c4.89,14.64,11.34,28.65,18.77,42.21c7.38,13.47,15.86,26.25,25.69,37.97c9.51,11.34,19.92,21.89,31.15,31.69
	c17.84,15.56,37.76,27.69,59.02,37.71c14.71,6.94,30.04,12.25,45.89,16.12c17.64,4.3,35.48,6.7,53.59,6.99
	c23.52,0.38,46.77-1.49,69.66-7.54c18.92-5.01,37.1-11.59,54.49-20.63c18.36-9.54,35.34-20.86,50.82-34.65
	c19.54-17.41,36.28-36.97,49.88-59.37c9.43-15.52,17.24-31.71,23.12-48.85c6.58-19.2,10.96-38.83,12.46-59.15
	c1.33-17.97,1.06-35.87-0.88-53.74c-2.4-22.23-8.05-43.66-16.38-64.42c-8.88-22.13-20.57-42.72-35.27-61.39
	c-14.26-18.11-31.06-33.79-49.58-47.59c-16.47-12.29-34.1-22.49-53.19-30.16C392.72,78.85,361.36,71.58,322.76,71.78z"/>
<path class="st0" d="M500.87,303.36c-20.67-9.25-42.79-10.74-64.94-11.37c-19.27-0.55-38.48,0.97-57.7,2.54
	c-22.55,1.84-44.94,4.96-67.23,8.44c-23.94,3.73-74.8,14.19-76.26,13.92c-0.23-0.04-0.44-0.12-0.67-0.18
	c0.69,1.17,1.87,2.06,3.32,2.86c3.42-0.47,6.58-0.98,9.75-1.32c15.34-1.65,30.64-3.63,46.03-4.76c14.55-1.07,29.04-3.01,43.67-3.18
	c21.78-0.25,43.54-0.84,65.28,1.4c15.04,1.55,29.85,3.97,43.95,9.6c16.3,6.5,27.79,18.06,34,34.42c6.58,17.34,6.93,35.29,3.77,53.4
	c-0.44,2.5-0.98,4.99-1.52,7.69c0.63-0.22,0.92-0.23,1.06-0.38c12.66-14.13,24.17-29.1,32.49-46.24c4.12-8.49,7.55-17.23,8.83-26.77
	C527.08,325.53,517.34,310.73,500.87,303.36z"/>
<path d="M225.56,267.61c0.01,0,0.02,0,0.04,0c0.02-0.03,0.03-0.07,0.05-0.1L225.56,267.61z"/>
<path class="st1" d="M234.07,316.71c-1.76-0.47-3.37-1.42-4.95-2.86c-2.11-1.93-4.43-3.66-6.79-5.28c-4.6-3.17-4.54-3.09-3.06-8.4
	c2.75-9.89,5.37-19.81,8.04-29.72c0.42-1.57,0.53-2.93-1.72-2.83c-0.34,0.71-0.63,1.46-1.06,2.12c-5.72,8.8-12.91,16.6-17.81,25.98
	c-1.27,2.44-3.54,3-5.78,1.48c-2.38-1.61-1.53-3.85-0.2-5.67c1.97-2.7,4.27-5.15,6.27-7.83c4.58-6.13,9.78-11.8,13.58-18.5
	c0.52-0.91,1.43-2.06,0.51-2.94c-0.98-0.93-1.98,0.2-2.76,0.81c-8.19,6.43-17.35,11.54-25.22,18.4c-1.49,1.3-2.69,1.47-4.33,0.07
	c-13.05-11.14-27.57-20.2-41.97-29.44c-6.24-4-13.51-6.22-19.37-12.03c0.18,2.48,0.36,4.13,0.42,5.79
	c0.56,15.81,3.92,31.13,9.52,45.79c8.36,21.89,21.07,40.5,41.33,53.56c16.16,10.42,33.69,15.55,52.58,17.01
	c1.61,0.13,3.97-0.72,4.6,1.01c0.63,1.73-2.16,1.78-2.97,3.05c-1.56,2.44-3.13,2.44-5.55,0.73c-6.15-4.36-12.75-4.99-19.51-1.21
	c-0.95,0.53-2.17,1.4-2.93,0.42c-2.87-3.7-6.8-2.26-10.34-2.31c-5.72-0.08-5.72,0.05-5.6,5.48c0.01,0.36-0.01,0.72-0.02,1.08
	c-0.69,15.32-0.05,30.65-0.4,45.96c-0.06,2.52,0.68,3.44,3.24,3.3c3.22-0.18,6.48-0.26,9.68,0.06c2.7,0.27,3.24-0.71,3.22-3.15
	c-0.1-10.54-0.06-21.08-0.02-31.61c0.01-3.81,1.94-6.02,5.62-6.63c4.08-0.68,7.55,2.48,7.62,7.43c0.13,10.05,0.14,20.12-0.12,30.17
	c-0.08,3.01,0.82,3.8,3.6,3.62c2.86-0.19,5.76-0.22,8.61,0.03c2.73,0.23,3.49-0.72,3.45-3.41c-0.15-9.7-0.04-19.4-0.08-29.1
	c-0.01-2.08,0.32-4.04,1.23-5.91c0.86-1.75,2.13-2.67,4.21-2.75c5.3-0.2,7.63,1.48,7.8,7.4c0.3,10.15,0.9,20.33,0.02,30.47
	c-0.21,2.36,0.26,3.33,2.73,3.25c3.35-0.12,6.71-0.13,10.06,0.02c2.19,0.09,2.99-0.7,2.96-2.88c-0.12-11.37-0.23-22.74-0.18-34.12
	c0.05-10.58-8.73-21.41-21.87-21.57c-20.88-0.25-40.91-4.45-59.05-16.06c-12.58-8.06-22.99-17.95-30.81-30.5
	c-6.26-10.05-11.27-20.7-14.74-32.14c-3.32-10.94-4.88-22.15-6.66-33.35c-0.16-1.02-0.38-2.48,0.68-2.96
	c1.26-0.58,1.68,1.01,2.37,1.71c12.76,12.97,24.86,26.6,38.63,38.53c29.65,25.67,61.28,48.61,94.89,68.83
	c1.13,0.68,2.58,1.37,2.23,2.88c-0.31,1.39-1.95,1.12-3.05,1.36c-4.53,0.99-9.29,0.51-13.75,2.08c7.1,1.16,13.98-0.63,20.9-1.69
	c0.8-0.12,1.19-0.8,0.59-1.61c-2.12-2.88-2.81-6.49-5.24-9.31c-8.09-9.36-17.03-17.8-26.58-25.63c-1.18-0.96-2.86-1.62-3.41-3.63
	c0,0,0.01,0,0.01,0C235.94,318.77,234.75,317.88,234.07,316.71z"/>
<path class="st1" d="M319.38,395.75c-0.44,3.79-0.28,7.62-0.95,11.42c-1.99,11.26-15.51,17.14-25.09,10.83
	c-0.87-0.57-1.71-1.78-2.78-1.28c-1.53,0.71-0.24,2.12-0.33,3.21c-0.29,3.86,0.73,7.59,1.2,11.38c0.64,5.12-0.94,6.81-6.1,6.84
	c-2.87,0.02-5.74-0.05-8.61-0.07c-1.7-0.01-2.76-0.62-2.58-2.56c1.08-11.81,0.45-23.65,0.42-35.48c-0.03-10.99,0.7-22-0.5-32.98
	c-0.26-2.37,0.33-3.57,3.04-3.35c2.61,0.21,5.26-0.01,7.89,0.03c0.95,0.01,2.35-0.14,2.76,0.39c2.77,3.57,5.15,1.06,8.22,0.3
	c11.56-2.88,21.35,0.13,22.83,14.51C319.37,384.49,320.01,390.11,319.38,395.75z M290.29,391.93c-0.14,2.63,0.12,5.22,0.6,7.81
	c0.45,2.48,1.01,4.69,4.07,5.02c4.86,0.52,6.66-0.3,7.9-4.07c1.87-5.67,2.07-11.46,0.59-17.24c-1.04-4.07-2.77-5.03-7.36-4.96
	c-3.61,0.06-4.55,2.45-5.17,5.27C290.33,386.45,290.16,389.18,290.29,391.93z"/>
<path class="st1" d="M394.63,397.07c-4.18,0-8.37-0.02-12.55,0.01c-3.12,0.02-4.05,1.31-2.49,4.01c2.81,4.86,7.48,7.19,15.23,3.98
	c1.67-0.69,3.02-3.29,4.95-1.98c2.85,1.92,5.48,4.3,7.42,7.2c1.13,1.69-0.36,2.87-1.5,3.93c-5.79,5.41-12.82,6.55-20.34,5.73
	c-13.13-1.43-18.92-7.18-20.94-20.35c-1.18-7.71-0.67-15.14,2.04-22.54c3.55-9.68,10.85-13.4,20.49-13.83
	c8.71-0.39,16.85,4.55,20.49,12.54c2.8,6.14,3.01,12.71,2.79,19.31c-0.06,1.8-1.22,2.1-2.68,2.1c-4.3-0.01-8.61,0-12.91,0
	C394.63,397.15,394.63,397.11,394.63,397.07z M387.21,377.04c-3.97,0.04-7.84,3.5-8.49,7.07c-0.32,1.77,0.59,2.03,2.01,2.01
	c3.34-0.06,6.68,0.01,10.02-0.11c1.36-0.05,3.3,0.77,3.96-0.66c0.75-1.63-0.11-3.5-1.17-4.99
	C391.88,378.05,389.48,377.18,387.21,377.04z"/>
<path class="st1" d="M331.51,392.79c0-3.71-0.04-7.42,0.02-11.13c0.03-1.83-0.02-3.43-2.55-3.14c-0.34,0.04-0.9-0.02-1.02-0.23
	c-1.76-3.07-0.26-6.52-1.08-9.73c-0.41-1.6,0.81-2.09,2.04-2.35c2.25-0.47,2.66-1.99,2.6-4c-0.09-3.23,0.1-6.47-0.07-9.69
	c-0.11-2.2,0.99-2.67,2.8-2.63c3.47,0.07,6.94,0.15,10.41,0.13c1.92-0.01,2.46,0.88,2.39,2.66c-0.12,3.11,0.05,6.23-0.16,9.33
	c-0.22,3.24,1.16,4.22,4.25,3.93c4.39-0.42,4.44-0.25,4.09,4.18c-0.07,0.95-0.11,1.91-0.12,2.87c-0.02,5.5-0.01,5.55-5.51,5.51
	c-1.81-0.01-2.66,0.6-2.65,2.46c0.04,6.94,0.05,13.89,0.03,20.83c-0.01,3.06,1.76,4.04,4.41,3.73c3.25-0.39,4.33,0.78,3.85,4.05
	c-0.34,2.34-0.03,4.77-0.05,7.16c-0.02,2.05-1,3.05-3.15,2.89c-1.91-0.14-3.84,0-5.74-0.17c-9.15-0.84-14.69-6.93-14.8-16.23
	C331.48,399.73,331.51,396.26,331.51,392.79z"/>
<path class="st1" d="M419.91,375.24c0-8.5,0.01-16.99,0-25.49c-0.01-4.57,0.33-4.92,4.96-4.34c2.39,0.3,4.81,0.57,7.14-0.01
	c2.95-0.73,3.6,0.65,3.56,3.16c-0.06,3.23-0.02,6.46-0.02,9.69c-0.03,14.12-0.07,28.24-0.1,42.36c-0.01,3.8,0.98,5.06,4.93,4.78
	c3.79-0.27,4.62,1.43,4.25,4.64c-0.12,1.07-0.09,2.15-0.09,3.23c-0.02,6.62-0.02,6.67-6.77,6.26c-2.38-0.14-4.78-0.4-7.1-0.93
	c-5.67-1.32-9.46-6-10.13-12.5C419.46,395.83,420.17,385.52,419.91,375.24z"/>
<path class="st1" d="M159.01,382.89c0-11.36,0.06-22.73-0.05-34.09c-0.03-2.54,0.77-3.34,3.3-3.18c3.33,0.2,6.7,0.43,10.02-0.23
	c2.06-0.41,2.91,0.55,2.94,2.49c0.03,1.79,0.04,3.59,0.03,5.38c-0.04,21.29-0.12,42.58-0.09,63.87c0,1.93-0.57,2.56-2.4,2.55
	c-4.06-0.03-8.13-0.05-12.19,0.13c-1.77,0.08-1.99-0.66-1.9-2.11C159.33,406.1,158.66,394.49,159.01,382.89z"/>
<path class="st1" d="M229.56,219.66c13.69,0.38,24.49,5.8,31.5,17.94c3.41,5.91,4.94,12.4,6.14,19.01c0.48,2.68-1.05,3.26-3.29,3.44
	c-2.48,0.2-2.43-1.14-2.63-3.07c-1.73-16.52-14.22-33.83-34.82-32.28c-2.19,0.16-3.49-0.64-3.62-2.9c-0.15-2.81,1.91-2.11,3.49-2.13
	C227.41,219.65,228.49,219.66,229.56,219.66z"/>
<path class="st1" d="M243.69,261.96c-2.36,0.41-3.67-0.38-4.18-3.23c-1.27-7.13-3.97-9.48-11.38-10.72
	c-3.15-0.53-5.05-5.28-3.19-7.87c0.73-1.02,1.68-0.71,2.58-0.59c10.46,1.35,17.74,6.31,20.13,17.23
	C248.74,261.67,248.98,261.64,243.69,261.96z"/>
<path class="st1" d="M227.27,229.86c4.86,0.52,9.39,1.13,13.73,3.19c11.06,5.23,13.86,15.03,14.95,25.9
	c0.09,0.86,0.03,1.76-1.17,1.79c-1.05,0.03-2.21,0.23-2.45-1.35c-0.31-2-0.63-4.01-1.1-5.98c-2.48-10.25-10.49-19.39-22.3-19.2
	c-1.31,0.02-2.63-0.14-3.93-0.29c-1.23-0.15-2.56-0.49-2.49-2.02c0.08-1.64,1.36-2.07,2.83-2.03
	C226.05,229.87,226.77,229.86,227.27,229.86z"/>
<path class="st1" d="M225.64,267.51c-1.19-0.94-1.67,0.03-2.22,0.82c-5.02,7.26-10.27,14.35-15.9,21.16
	c-1.11,1.34-1.61,3.18-2.51,4.72c-0.53,0.91-1.59,1.46-2.42,0.73c-1.07-0.95-0.06-1.82,0.76-2.18c3.01-1.33,2.83-4.77,4.73-6.87
	c6.8-7.56,11.5-16.74,18.51-24.13c1.6-1.68,1.58-4.62,4.63-5.6c-0.68,4.67-5.48,6.96-5.66,11.45
	C225.56,267.61,225.64,267.51,225.64,267.51z"/>
<text transform="matrix(1 0 0 1 292.8086 435.4445)" class="st1 st2 st3">Instituto Médio Privado de Tecnologia de Luanda</text>
<radialGradient id="SVGID_1_" cx="325" cy="325" r="281.7308" fx="184.4066" fy="176.0474" gradientUnits="userSpaceOnUse">
	<stop  offset="0.8897" style="stop-color:#ED2024"/>
	<stop  offset="0.9428" style="stop-color:#E92024"/>
	<stop  offset="0.962" style="stop-color:#DD1F24"/>
	<stop  offset="0.9756" style="stop-color:#CE1F23"/>
	<stop  offset="0.9866" style="stop-color:#B91E22"/>
	<stop  offset="0.996" style="stop-color:#A01B1F"/>
	<stop  offset="1" style="stop-color:#931A1D"/>
</radialGradient>
<path class="st4" d="M42.85,324.15c1.69-162.02,132.78-281.23,282.8-280.46c163.09,0.84,288.09,134.24,281.23,293.68
	c-6.5,150.97-132.04,274.95-292.79,268.71C159.52,600.09,43.01,473.74,42.85,324.15z M322.76,71.78c-18.2-0.35-41.7,2.4-64.81,8.68
	c-14.7,3.99-28.8,9.52-42.67,15.7c-8.75,3.9-16.76,9.17-25.05,13.92c-13.06,7.48-24.68,16.85-35.77,26.91
	c-12.62,11.45-23.65,24.34-33.97,37.89c-10.63,13.97-19.06,29.22-26.82,44.89c-4.52,9.12-7.78,18.73-10.81,28.44
	c-3.89,12.45-7.52,25.03-9.31,37.9c-3.21,23.17-3.68,46.48-0.89,69.79c2.03,17.03,5.74,33.71,11.16,49.95
	c4.89,14.64,11.34,28.65,18.77,42.21c7.38,13.47,15.86,26.25,25.69,37.97c9.51,11.34,19.92,21.89,31.15,31.69
	c17.84,15.56,37.76,27.69,59.02,37.71c14.71,6.94,30.04,12.25,45.89,16.12c17.64,4.3,35.48,6.7,53.59,6.99
	c23.52,0.38,46.77-1.49,69.66-7.54c18.92-5.01,37.1-11.59,54.49-20.63c18.36-9.54,35.34-20.86,50.82-34.65
	c19.54-17.41,36.28-36.97,49.88-59.37c9.43-15.52,17.24-31.71,23.12-48.85c6.58-19.2,10.96-38.83,12.46-59.15
	c1.33-17.97,1.06-35.87-0.88-53.74c-2.4-22.23-8.05-43.66-16.38-64.42c-8.88-22.13-20.57-42.72-35.27-61.39
	c-14.26-18.11-31.06-33.79-49.58-47.59c-16.47-12.29-34.1-22.49-53.19-30.16C392.72,78.85,361.36,71.58,322.76,71.78z"/>
</svg>
